<svg width="452" height="130" xmlns="http://www.w3.org/2000/svg"><path d="M452 0H0v129.9h452z" fill="#fff"/><path d="M147.8 67.2V40.3h-11.4V70c0 2.5-.2 5.6-3.4 5.6-2.9 0-3.3-2.9-3.4-5.2h-12.1c0 6.5 2.6 11.8 9 14.1 1.9.7 4 1.1 6 1.1 4.7 0 9.5-2.1 12.6-5.8 2.7-3.5 2.7-8.3 2.7-12.6zm41.5 17.6V51.5h-10V55h-.1c-2-3.3-6.1-4.7-9.7-4.7-10 0-16.8 8-16.8 17.8 0 9.9 6.5 17.8 16.8 17.8 3.6 0 7.9-1.3 9.7-4.7h.1v3.6zm-10-16.7c0 4.8-3.5 8.5-8.3 8.5-4.7 0-8.3-3.8-8.3-8.4 0-4.7 3.4-8.6 8.2-8.6 4.9 0 8.4 3.6 8.4 8.5zm68.5 16.7V66.6c0-5.1.2-9.1-3.6-12.9-2.3-2.4-5.5-3.4-8.8-3.4-4.5 0-8.2 2.2-10.6 5.9-2-3.8-5.3-5.9-9.6-5.9-3.8 0-7.3 1.3-9.2 4.7h-.1v-3.5h-9.3v33.3h10V67.1c0-3.9 1-7.4 5.6-7.4 4.2 0 5 3.5 5 7v18.1h10V66.6c0-3.8 1.1-6.9 5.5-6.9 4.6 0 5.1 3.7 5.1 7.4v17.7zm32-10.2c0-11.8-16.8-8.8-16.8-14.1 0-1.5 1.5-2.2 2.8-2.2 1.7 0 3.1.7 3.1 2.5h9.8c-.7-7.1-6.1-10.5-12.8-10.5-6.4 0-12.9 4-12.9 11 0 4.7 4 7.3 7.9 8.7 1.4.5 2.9 1 4.3 1.5 1.8.7 4.5 1.4 4.5 3.8 0 1.7-2 2.6-3.5 2.6-2 0-3.5-1-3.8-3.1h-9.9c.8 7.3 6.6 11.1 13.6 11.1 6.9 0 13.7-3.8 13.7-11.3zM301.5 59v-7.6h-4.8V40.3h-10v11.1h-4.9V59h4.9v25.8h10V59zm38.4 25.8V51.5h-10V55h-.1c-2-3.3-6.1-4.7-9.7-4.7-10 0-16.8 8-16.8 17.8 0 9.9 6.5 17.8 16.8 17.8 3.6 0 7.9-1.3 9.7-4.7h.1v3.6zM330 68.1c0 4.8-3.5 8.5-8.3 8.5-4.7 0-8.3-3.8-8.3-8.4 0-4.7 3.4-8.6 8.2-8.6s8.4 3.6 8.4 8.5zm50.9 4h-10.2c-1.5 2.9-3.9 4.4-7.2 4.4-4.9 0-7.9-3.8-7.9-8.5 0-4.5 2.9-8.5 7.7-8.5 3.4 0 6 1.6 7.4 4.7h10.1c-1.7-8.5-9.1-14-17.7-14-9.9 0-17.6 7.9-17.6 17.7 0 10 7.9 17.8 17.8 17.8 8.5.2 15.7-5.4 17.6-13.6zm36.2-20.6h-11.8l-9.3 12h-.1V40.3h-10v44.4h10v-16h.1l9.4 16h11.3L404.5 66z" fill="#242424"/><path d="M61.3 28.7C41.2 28.7 25 45 25 65.1s16.3 36.4 36.4 36.4 36.4-16.3 36.4-36.4V28.7z" fill="#f0047f"/><path d="M60.2 66.2v25.5c-13.8-.5-25-11.7-25.6-25.5zm2.3.1H88c-.6 13.8-11.7 24.9-25.5 25.5zm0-2.4V38.4H88v25.5z" fill="#fff" stroke="#f0047f"/></svg>